<svg xmlns="http://www.w3.org/2000/svg" xmlns:xlink="http://www.w3.org/1999/xlink" width="118" height="820" viewBox="0 0 118 820"><svg width="116" height="116" viewBox="-10 -10 116 116"><path d="M48 1v94M43.9 1.2l8.2 93.6M39.8 1.7l16.4 92.6M35.8 2.6l24.4 90.8M31.9 3.8l32.2 88.4m-36-86.8l39.8 85.2M24.5 7.3l47 81.4M21 9.5l54 77M17.8 12l60.4 72M14.8 14.8l66.4 66.4M12 17.8l72 60.4M9.5 21l77 54M7.3 24.5l81.4 47M5.4 28.1l85.2 39.8m-86.8-36l88.4 32.2M2.6 35.8l90.8 24.4M1.7 39.8l92.6 16.4M1.2 43.9l93.6 8.2M1 48h94M1.2 52.1l93.6-8.2M1.7 56.2l92.6-16.4M2.6 60.2l90.8-24.4M3.8 64.1l88.4-32.2m-86.8 36l85.2-39.8M7.3 71.5l81.4-47M9.5 75l77-54M12 78.2l72-60.4M14.8 81.2l66.4-66.4M17.8 84l60.4-72M21 86.5l54-77M24.5 88.7l47-81.4M28.1 90.6L67.9 5.4m-36 86.8L64.1 3.8M35.8 93.4L60.2 2.6M39.8 94.3L56.2 1.7M43.9 94.8l8.2-93.6" fill="none" stroke="#404040" stroke-width=".5" stroke-miterlimit="10"/><circle fill-rule="evenodd" clip-rule="evenodd" fill="#FFF" stroke="#404040" stroke-width="2" stroke-miterlimit="10" cx="48" cy="48" r="47"/><path clip-rule="evenodd" fill="none" stroke="#404040" stroke-width=".895" stroke-miterlimit="10" d="M48 20.2c15.4 0 27.9 12.5 27.9 27.9s-12.5 28-27.9 28-28-12.5-28-28 12.5-27.9 28-27.9z"/><path d="M29.3 37.6l1.9 5.5 1.9-5.5h2v7.6h-1.6v-2.1l.2-3.6-2 5.6h-1.1l-2-5.6.2 3.6v2.1h-1.6v-7.6h2.1zM41 43.7h-2.7l-.5 1.6h-1.7l2.8-7.6h1.4l2.8 7.6h-1.7l-.4-1.6zm-2.3-1.3h1.9l-1-2.8-.9 2.8zm5.2 2.8v-7.6h2.3c.7 0 1.3.1 1.8.4.5.3.9.7 1.2 1.3.3.6.4 1.2.4 1.9v.3c0 .7-.1 1.3-.4 1.9-.3.5-.7 1-1.2 1.3-.5.3-1.1.5-1.8.5h-2.3zm1.5-6.3v5h.8c.6 0 1.1-.2 1.4-.6s.5-1 .5-1.7v-.4c0-.8-.2-1.4-.5-1.7-.3-.4-.8-.6-1.4-.6h-.8zm9.9 3h-3v2h3.5v1.3h-5.1v-7.6h5.1v1.3h-3.5v1.8h3v1.2zm5.8 3.3h-1.6v-7.6h1.6v7.6zm7.6 0h-1.6l-3-5v5h-1.6v-7.6h1.6l3 5v-5h1.6v7.6zm-37.1 9.1h-3v2h3.5v1.3H27V50h5.1v1.3h-3.5v1.8h3v1.2zm7.8-4.3v5c0 .8-.3 1.5-.8 2s-1.2.7-2.1.7c-.9 0-1.6-.2-2.1-.7s-.8-1.1-.8-1.9v-5h1.6v5c0 .5.1.9.4 1.1.2.2.6.3 1 .3.9 0 1.3-.5 1.3-1.4v-5h1.5zm4.8 4.8H43v2.8h-1.6V50h2.8c.9 0 1.6.2 2.1.6.5.4.7 1 .7 1.7 0 .5-.1.9-.3 1.3s-.6.6-1 .8l1.6 3.1v.1h-1.7l-1.4-2.8zm-1.3-1.3h1.3c.4 0 .7-.1.9-.3s.3-.5.3-.8c0-.4-.1-.6-.3-.8-.2-.2-.5-.3-.9-.3h-1.3v2.2zM55 54c0 .7-.1 1.4-.4 2-.3.6-.6 1-1.1 1.3s-1.1.5-1.7.5c-.6 0-1.2-.2-1.7-.5s-.9-.7-1.1-1.3c-.3-.6-.4-1.2-.4-1.9v-.4c0-.7.1-1.4.4-2s.6-1 1.1-1.3c.5-.3 1.1-.5 1.7-.5.6 0 1.2.2 1.7.5s.9.7 1.1 1.3.4 1.2.4 2v.3zm-1.6-.4c0-.8-.1-1.4-.4-1.8s-.7-.6-1.2-.6-.9.2-1.2.6c-.3.4-.4 1-.4 1.8v.4c0 .8.1 1.4.4 1.8s.7.6 1.2.6.9-.2 1.2-.6.4-1 .4-1.8v-.4zm4.9 1.3v2.7h-1.6V50h3c.6 0 1.1.1 1.5.3.4.2.8.5 1 .9.2.4.3.8.3 1.3 0 .7-.3 1.3-.8 1.8-.5.4-1.2.6-2.1.6h-1.3zm0-1.3h1.4c.4 0 .7-.1.9-.3s.3-.5.3-.8c0-.4-.1-.7-.3-.9-.2-.2-.5-.3-.9-.4h-1.4v2.4zm10.5.7h-3v2h3.5v1.3h-5.1V50h5.1v1.3h-3.5v1.8h3v1.2z" fill="#404040"/><path fill-rule="evenodd" clip-rule="evenodd" fill="#404040" d="M48.2 14.6l-3.3 1.7.7-3.6-2.7-2.6 3.7-.6 1.6-3.3 1.7 3.3 3.7.6-2.7 2.6.6 3.6zm0 71.6l-3.3 1.7.7-3.7-2.7-2.6 3.7-.5 1.6-3.4 1.7 3.4 3.7.5-2.7 2.6.6 3.7zm15-69.2l-2.7-2.6 3.7-.5 1.6-3.4 1.7 3.4 3.7.5-2.7 2.6.6 3.7-3.3-1.8-3.3 1.8zm0 62.9l-2.7-2.6 3.7-.6 1.6-3.3 1.7 3.3 3.7.6-2.7 2.6.6 3.7-3.3-1.8-3.3 1.8zm16.6-48.4l-3.3 1.8.6-3.7-2.7-2.6 3.7-.6 1.7-3.3 1.6 3.3 3.7.6-2.6 2.6.6 3.7zm0 37.3l-3.3 1.7.6-3.7-2.7-2.6 3.7-.5 1.7-3.3 1.6 3.3 3.7.5-2.6 2.6.6 3.7zM84.6 51l-3.3 1.7.6-3.7-2.7-2.6 3.7-.5 1.7-3.4 1.6 3.4 3.7.5-2.6 2.6.6 3.7zm-54-32.1l-3.3 1.8.6-3.7-2.6-2.6 3.7-.5 1.6-3.4 1.7 3.4 3.7.5-2.7 2.6.6 3.7zm0 62.9l-3.3 1.8.6-3.7-2.6-2.6 3.7-.6 1.6-3.3 1.7 3.3 3.7.6-2.7 2.6.6 3.7zM16.7 31.5l-3.3 1.8.6-3.7-2.7-2.6 3.7-.6 1.7-3.3 1.6 3.3 3.7.6-2.7 2.6.7 3.7zm0 37.3l-3.3 1.7.6-3.7-2.7-2.6 3.7-.5 1.7-3.3 1.6 3.3 3.7.5-2.7 2.6.7 3.7zM11.9 51l-3.3 1.7.6-3.7-2.7-2.6 3.7-.5 1.7-3.4 1.6 3.4 3.7.5-2.7 2.6.7 3.7z"/></svg><svg width="116" height="116" viewBox="-10 -10 116 116" y="116"><path fill-rule="evenodd" clip-rule="evenodd" fill="#FFF" d="M48 1c26 0 47 21 47 47S74 95 48 95 1 74 1 48 22 1 48 1z"/><path fill="none" stroke="#404040" stroke-width=".488" stroke-miterlimit="10" d="M48 12.7c1 0 2 1 3 1.1 1 .1 2.1-.7 3.1-.5 1 .2 1.8 1.3 2.8 1.6 1 .3 2.2-.3 3.2 0s1.5 1.6 2.4 2c.9.4 2.3.1 3.1.6.9.5 1.2 1.9 2 2.4.8.6 2.2.4 3 1.1.8.7.9 2 1.6 2.8.7.7 2.1.8 2.8 1.6.7.8.5 2.2 1.1 3 .6.8 1.9 1.2 2.4 2 .5.9.1 2.2.6 3.1.4.9 1.7 1.5 2 2.4.3.9-.3 2.2 0 3.2s1.4 1.8 1.6 2.8c.2 1-.6 2.1-.5 3.1.1 1 1.1 2 1.1 3s-1 2-1.1 3c-.1 1 .7 2.1.5 3.1-.2 1-1.3 1.8-1.6 2.8-.3 1 .3 2.2 0 3.2s-1.6 1.5-2 2.4c-.4.9-.1 2.3-.6 3.1-.5.9-1.9 1.2-2.4 2-.6.8-.4 2.2-1.1 3-.7.8-2 .9-2.8 1.6-.7.7-.8 2.1-1.6 2.8-.8.7-2.2.5-3 1.1-.8.6-1.2 1.9-2 2.4-.9.5-2.2.1-3.1.6-.9.4-1.5 1.7-2.4 2-.9.3-2.2-.3-3.2 0s-1.8 1.4-2.8 1.6c-1 .2-2.1-.6-3.1-.5-1 .1-2 1.1-3 1.1s-2-1-3-1.1c-1-.1-2.1.7-3.1.5-1-.2-1.8-1.3-2.8-1.6-1-.3-2.2.3-3.2 0s-1.5-1.6-2.4-2c-.9-.4-2.3-.1-3.1-.6-.9-.5-1.2-1.9-2-2.4-.8-.6-2.2-.4-3-1.1-.8-.7-.9-2-1.6-2.8-.7-.7-2.1-.8-2.8-1.6-.7-.8-.5-2.2-1.1-3-.6-.8-1.9-1.2-2.4-2-.5-.9-.1-2.2-.6-3.1-.4-.9-1.7-1.5-2-2.4-.3-.9.3-2.2 0-3.2s-1.4-1.8-1.6-2.8c-.2-1 .6-2.1.5-3.1-.1-1-1.1-2-1.1-3s1-2 1.1-3c.1-1-.7-2.1-.5-3.1.2-1 1.3-1.8 1.6-2.8.3-1-.3-2.2 0-3.2s1.6-1.5 2-2.4c.4-.9.1-2.3.6-3.1.5-.9 1.9-1.2 2.4-2 .6-.8.4-2.2 1.1-3 .7-.8 2-.9 2.8-1.6.7-.7.8-2.1 1.6-2.8.8-.7 2.2-.5 3-1.1.8-.6 1.2-1.9 2-2.4.9-.5 2.2-.1 3.1-.6.9-.4 1.5-1.7 2.4-2 .9-.3 2.2.3 3.2 0s1.8-1.4 2.8-1.6c1-.2 2.1.6 3.1.5 1-.1 2-1.1 3-1.1z"/><path fill="none" stroke="#404040" stroke-width=".516" stroke-miterlimit="10" d="M48 10.8c1.1 0 2.1 1 3.2 1.1 1.1.1 2.3-.8 3.3-.6 1.1.2 1.9 1.4 2.9 1.7 1 .3 2.4-.4 3.4 0s1.6 1.7 2.6 2.2c1 .5 2.4.1 3.3.6.9.5 1.3 2 2.2 2.6.9.6 2.3.5 3.2 1.2.8.7.9 2.1 1.7 2.9.8.8 2.2.9 2.9 1.7.7.8.5 2.3 1.2 3.2.6.9 2 1.2 2.6 2.2.5.9.1 2.3.6 3.3s1.8 1.6 2.2 2.6c.4 1-.3 2.3 0 3.4.3 1 1.5 1.9 1.7 2.9.2 1-.7 2.2-.6 3.3.1 1.1 1.1 2.1 1.1 3.2s-1 2.1-1.1 3.2c-.1 1.1.8 2.3.6 3.3-.2 1.1-1.4 1.9-1.7 2.9-.3 1 .4 2.4 0 3.4s-1.7 1.6-2.2 2.6c-.5 1-.1 2.4-.6 3.3-.5.9-2 1.3-2.6 2.2-.6.9-.5 2.3-1.2 3.2-.7.8-2.1.9-2.9 1.7-.8.8-.9 2.2-1.7 2.9-.8.7-2.3.5-3.2 1.2-.9.6-1.2 2-2.2 2.6-.9.5-2.3.1-3.3.6s-1.6 1.8-2.6 2.2c-1 .4-2.3-.3-3.4 0-1 .3-1.9 1.5-2.9 1.7-1 .2-2.2-.7-3.3-.6-1.1.1-2.1 1.1-3.2 1.1s-2.1-1-3.2-1.1c-1.1-.1-2.3.8-3.3.6-1.1-.2-1.9-1.4-2.9-1.7-1-.3-2.4.4-3.4 0s-1.6-1.7-2.6-2.2c-1-.5-2.4-.1-3.3-.6-.9-.5-1.3-2-2.2-2.6-.9-.6-2.3-.5-3.2-1.2-.8-.7-.9-2.1-1.7-2.9-.8-.8-2.2-.9-2.9-1.7-.7-.8-.5-2.3-1.2-3.2-.6-.9-2-1.2-2.6-2.2-.5-.9-.1-2.3-.6-3.3s-1.8-1.6-2.2-2.6c-.4-1 .3-2.3 0-3.4-.3-1-1.5-1.9-1.7-2.9-.2-1 .7-2.2.6-3.3-.1-1.1-1.1-2.1-1.1-3.2s1-2.1 1.1-3.2c.1-1.1-.8-2.3-.6-3.3.2-1.1 1.4-1.9 1.7-2.9.3-1-.4-2.4 0-3.4s1.7-1.6 2.2-2.6c.5-1 .1-2.4.6-3.3.5-.9 2-1.3 2.6-2.2.6-.9.5-2.3 1.2-3.2.7-.8 2.1-.9 2.9-1.7.8-.8.9-2.2 1.7-2.9.8-.7 2.3-.5 3.2-1.2.9-.6 1.2-2 2.2-2.6.9-.5 2.3-.1 3.3-.6s1.6-1.8 2.6-2.2c1-.4 2.3.3 3.4 0 1-.3 1.9-1.5 2.9-1.7 1-.2 2.2.7 3.3.6 1.1-.1 2.1-1.1 3.2-1.1z"/><path fill="none" stroke="#404040" stroke-width=".543" stroke-miterlimit="10" d="M48 8.8c1.1 0 2.2 1.1 3.3 1.2 1.1.1 2.4-.8 3.5-.6 1.1.2 2 1.5 3.1 1.8 1.1.3 2.5-.4 3.5 0 1.1.4 1.7 1.8 2.7 2.3 1 .5 2.5.1 3.5.6 1 .6 1.4 2.1 2.3 2.7.9.6 2.5.5 3.3 1.2.9.7 1 2.3 1.8 3.1.8.8 2.3.9 3.1 1.8.7.9.6 2.4 1.2 3.3.6.9 2.1 1.3 2.7 2.3.6 1 .1 2.5.6 3.5s1.9 1.7 2.3 2.7c.4 1.1-.3 2.4 0 3.5s1.6 2 1.8 3.1c.2 1.1-.7 2.4-.6 3.5.1 1.1 1.2 2.2 1.2 3.3 0 1.1-1.1 2.2-1.2 3.3-.1 1.1.8 2.4.6 3.5-.2 1.1-1.5 2-1.8 3.1-.3 1.1.4 2.5 0 3.5-.4 1.1-1.8 1.7-2.3 2.7-.5 1-.1 2.5-.6 3.5-.6 1-2.1 1.4-2.7 2.3-.6.9-.5 2.5-1.2 3.3-.7.9-2.3 1-3.1 1.8s-.9 2.3-1.8 3.1c-.9.7-2.4.6-3.3 1.2-.9.6-1.3 2.1-2.3 2.7-1 .6-2.5.1-3.5.6s-1.7 1.9-2.7 2.3c-1.1.4-2.4-.3-3.5 0s-2 1.6-3.1 1.8c-1.1.2-2.4-.7-3.5-.6-1.1.1-2.2 1.2-3.3 1.2-1.1 0-2.2-1.1-3.3-1.2-1.1-.1-2.4.8-3.5.6-1.1-.2-2-1.5-3.1-1.8-1.1-.3-2.5.4-3.5 0-1.1-.4-1.7-1.8-2.7-2.3-1-.5-2.5-.1-3.5-.6-1-.6-1.4-2.1-2.3-2.7-.9-.6-2.5-.5-3.3-1.2-.9-.7-1-2.3-1.8-3.1-.8-.8-2.3-.9-3.1-1.8-.7-.9-.6-2.4-1.2-3.3-.6-.9-2.1-1.3-2.7-2.3-.6-1-.1-2.5-.6-3.5s-1.9-1.7-2.3-2.7c-.4-1.1.3-2.4 0-3.5s-1.6-2-1.8-3.1c-.2-1.1.7-2.4.6-3.5-.1-1.1-1.2-2.2-1.2-3.3 0-1.1 1.1-2.2 1.2-3.3.1-1.1-.8-2.4-.6-3.5.2-1.1 1.5-2 1.8-3.1.3-1.1-.4-2.5 0-3.5.4-1.1 1.8-1.7 2.3-2.7.5-1 .1-2.5.6-3.5.6-1 2.1-1.4 2.7-2.3.6-.9.5-2.5 1.2-3.3.7-.9 2.3-1 3.1-1.8.8-.8.9-2.3 1.8-3.1.9-.7 2.4-.6 3.3-1.2.9-.6 1.3-2.1 2.3-2.7 1-.6 2.5-.1 3.5-.6s1.7-1.9 2.7-2.3c1.1-.4 2.4.3 3.5 0s2-1.6 3.1-1.8c1.1-.2 2.4.7 3.5.6 1.1-.1 2.2-1.2 3.3-1.2z"/><path fill="none" stroke="#404040" stroke-width=".571" stroke-miterlimit="10" d="M48 6.8c1.2 0 2.3 1.2 3.5 1.3 1.2.1 2.5-.8 3.7-.6 1.2.2 2.1 1.5 3.2 1.8 1.1.3 2.6-.4 3.7 0s1.8 1.9 2.9 2.4c1.1.5 2.6.1 3.7.7 1 .6 1.4 2.2 2.4 2.8 1 .7 2.6.5 3.5 1.3.9.8 1 2.4 1.9 3.2.8.8 2.5 1 3.2 1.9.8.9.6 2.5 1.3 3.5.7 1 2.2 1.4 2.8 2.4.6 1 .2 2.6.7 3.7.5 1.1 2 1.7 2.4 2.9.4 1.1-.3 2.6 0 3.7s1.6 2.1 1.8 3.2c.2 1.2-.7 2.5-.6 3.7.1 1.2 1.3 2.3 1.3 3.5 0 1.2-1.2 2.3-1.3 3.5-.1 1.2.8 2.5.6 3.7-.2 1.2-1.5 2.1-1.8 3.2-.3 1.1.4 2.6 0 3.7s-1.9 1.8-2.4 2.9c-.5 1.1-.1 2.6-.7 3.7-.6 1-2.2 1.4-2.8 2.4-.7 1-.5 2.6-1.3 3.5-.8.9-2.4 1-3.2 1.9-.8.8-1 2.5-1.9 3.2-.9.8-2.5.6-3.5 1.3-1 .7-1.4 2.2-2.4 2.8-1 .6-2.6.2-3.7.7-1.1.5-1.7 2-2.9 2.4-1.1.4-2.6-.3-3.7 0s-2.1 1.6-3.2 1.8c-1.2.2-2.5-.7-3.7-.6-1.2.1-2.3 1.3-3.5 1.3-1.2 0-2.3-1.2-3.5-1.3-1.2-.1-2.5.8-3.7.6-1.2-.2-2.1-1.5-3.2-1.8-1.1-.3-2.6.4-3.7 0s-1.8-1.9-2.9-2.4c-1.1-.5-2.6-.1-3.7-.7-1-.6-1.4-2.2-2.4-2.8-1-.7-2.6-.5-3.5-1.3-.9-.8-1-2.4-1.9-3.2-.8-.8-2.5-1-3.2-1.9-.8-.9-.6-2.5-1.3-3.5-.7-1-2.2-1.4-2.8-2.4-.6-1-.2-2.6-.7-3.7-.5-1.1-2-1.7-2.4-2.9-.4-1.1.3-2.6 0-3.7s-1.6-2.1-1.8-3.2c-.2-1.2.7-2.5.6-3.7.1-1.4-1.1-2.5-1.1-3.7 0-1.2 1.2-2.3 1.3-3.5.1-1.2-.8-2.5-.6-3.7.2-1.2 1.5-2.1 1.8-3.2.3-1.1-.4-2.6 0-3.7s1.9-1.8 2.4-2.9c.5-1.1.1-2.6.7-3.7.6-1 2.2-1.4 2.8-2.4.7-1 .5-2.6 1.3-3.5.8-.9 2.4-1 3.2-1.9.8-.8 1-2.5 1.9-3.2.9-.8 2.5-.6 3.5-1.3 1-.7 1.4-2.2 2.4-2.8 1-.6 2.6-.2 3.7-.7 1.1-.5 1.7-2 2.9-2.4 1.1-.4 2.6.3 3.7 0s2.1-1.6 3.2-1.8c1.2-.2 2.5.7 3.7.6 1 .1 2.1-1.1 3.3-1.1z"/><path fill="none" stroke="#404040" stroke-width=".598" stroke-miterlimit="10" d="M48 4.8c1.3 0 2.4 1.2 3.7 1.3 1.2.1 2.6-.9 3.8-.7 1.2.2 2.2 1.6 3.4 1.9 1.2.3 2.7-.4 3.9 0 1.2.4 1.9 2 3 2.5s2.8.1 3.8.7c1.1.6 1.5 2.3 2.5 3 1 .7 2.7.5 3.7 1.3.9.8 1.1 2.5 2 3.4.9.9 2.6 1 3.4 2 .8.9.6 2.6 1.3 3.7.7 1 2.4 1.4 3 2.5.6 1.1.2 2.7.7 3.8.5 1.1 2.1 1.8 2.5 3 .4 1.2-.3 2.7 0 3.9.3 1.2 1.7 2.1 1.9 3.4.2 1.2-.8 2.6-.7 3.8.1 1.2 1.3 2.4 1.3 3.7 0 1.3-1.2 2.4-1.3 3.7-.1 1.2.9 2.6.7 3.8-.2 1.2-1.6 2.2-1.9 3.4-.3 1.2.4 2.7 0 3.9-.4 1.2-2 1.9-2.5 3s-.1 2.8-.7 3.8c-.6 1.1-2.3 1.5-3 2.5-.7 1-.5 2.7-1.3 3.7-.8.9-2.5 1.1-3.4 2-.9.9-1 2.6-2 3.4-.9.8-2.6.6-3.7 1.3-1 .7-1.4 2.4-2.5 3-1.1.6-2.7.2-3.8.7-1.1.5-1.8 2.1-3 2.5-1.2.4-2.7-.3-3.9 0-1.2.3-2.1 1.7-3.4 1.9-1.2.2-2.6-.8-3.8-.7-1.2.1-2.4 1.3-3.7 1.3-1.3 0-2.4-1.2-3.7-1.3-1.2-.1-2.6.9-3.8.7-1.2-.2-2.2-1.6-3.4-1.9-1.2-.3-2.7.4-3.9 0-1.2-.4-1.9-2-3-2.5s-2.8-.1-3.8-.7c-1.1-.6-1.5-2.3-2.5-3-1-.7-2.7-.5-3.7-1.3-.9-.8-1.1-2.5-2-3.4-.9-.9-2.6-1-3.4-2-.8-.9-.6-2.6-1.3-3.7-.7-1-2.4-1.4-3-2.5-.6-1.1-.2-2.7-.7-3.8-.5-1.1-2.1-1.8-2.5-3-.4-1.2.3-2.7 0-3.9-.3-1.2-1.7-2.1-1.9-3.4-.2-1.2.8-2.6.7-3.8-.1-1.3-1.3-2.4-1.3-3.7 0-1.3 1.2-2.4 1.3-3.7.1-1.2-.9-2.6-.7-3.8.2-1.2 1.6-2.2 1.9-3.4.3-1.2-.4-2.7 0-3.9.4-1.2 2-1.9 2.5-3s.1-2.8.7-3.8c.6-1.1 2.3-1.5 3-2.5.7-1 .5-2.7 1.3-3.7.8-.9 2.5-1.1 3.4-2 .9-.9 1-2.6 2-3.4.9-.8 2.6-.6 3.7-1.3 1-.7 1.4-2.4 2.5-3 1.1-.6 2.7-.2 3.8-.7 1.1-.5 1.8-2.1 3-2.5 1.2-.4 2.7.3 3.9 0 1.2-.3 2.1-1.7 3.4-1.9 1.2-.2 2.6.8 3.8.7 1.3-.1 2.4-1.3 3.7-1.3z"/><path fill-rule="evenodd" clip-rule="evenodd" fill="#FFF" d="M48.5 47.5l29.4-35.8C69.7 5 59.3 1 48 1S26.3 5 18.1 11.7l29.4 35.8-36.4 29.6C19.7 88 33 95 48 95s28.3-7 36.9-17.9L48.5 47.5z"/><path fill-rule="evenodd" clip-rule="evenodd" fill="#FFF" d="M48 14.7c1 0 1.9.9 2.8 1 1 .1 2-.7 3-.5.9.2 1.7 1.2 2.6 1.5.9.2 2.1-.3 3 0 .9.3 1.4 1.5 2.3 1.9.9.4 2.1.1 3 .5.8.5 1.2 1.7 1.9 2.3.8.5 2.1.4 2.8 1 .7.6.8 1.9 1.5 2.6.7.7 2 .8 2.6 1.5.6.7.5 2 1 2.8.5.8 1.8 1.1 2.3 1.9.5.8.1 2.1.5 3 .4.9 1.6 1.4 1.9 2.3.3.9-.2 2.1 0 3 .2.9 1.3 1.7 1.5 2.6.2.9-.6 2-.5 3 .1.9 1 1.9 1 2.8 0 1-.9 1.9-1 2.8-.1 1 .7 2 .5 3-.2.9-1.2 1.7-1.5 2.6-.2.9.3 2.1 0 3-.3.9-1.5 1.4-1.9 2.3-.4.9-.1 2.1-.5 3-.5.8-1.7 1.2-2.3 1.9-.5.8-.4 2.1-1 2.8-.6.7-1.9.8-2.6 1.5-.7.7-.8 2-1.5 2.6-.7.6-2 .5-2.8 1-.8.5-1.1 1.8-1.9 2.3-.8.5-2.1.1-3 .5-.9.4-1.4 1.6-2.3 1.9-.9.3-2.1-.2-3 0-.9.2-1.7 1.3-2.6 1.5-.9.2-2-.6-3-.5-.9.1-1.9 1-2.8 1-1 0-1.9-.9-2.8-1-1-.1-2 .7-3 .5-.9-.2-1.7-1.2-2.6-1.5-.9-.2-2.1.3-3 0-.9-.3-1.4-1.5-2.3-1.9-.9-.4-2.1-.1-3-.5-.8-.5-1.2-1.7-1.9-2.3-.8-.5-2.1-.4-2.8-1-.7-.6-.8-1.9-1.5-2.6-.7-.7-2-.8-2.6-1.5-.6-.7-.5-2-1-2.8-.5-.8-1.8-1.1-2.3-1.9-.5-.8-.1-2.1-.5-3-.4-.9-1.6-1.4-1.9-2.3-.3-.9.2-2.1 0-3-.2-.9-1.3-1.7-1.5-2.6-.2-.9.6-2 .5-3-.1-.9-1-1.9-1-2.8 0-1 .9-1.9 1-2.8.1-1-.7-2-.5-3 .2-.9 1.2-1.7 1.5-2.6.2-.9-.3-2.1 0-3 .3-.9 1.5-1.4 1.9-2.3.4-.9.1-2.1.5-3 .5-.8 1.7-1.2 2.3-1.9.5-.8.4-2.1 1-2.8.6-.7 1.9-.8 2.6-1.5.7-.7.8-2 1.5-2.6.7-.6 2-.5 2.8-1 .8-.5 1.1-1.8 1.9-2.3.8-.5 2.1-.1 3-.5.9-.4 1.4-1.6 2.3-1.9.9-.3 2.1.2 3 0 .9-.2 1.7-1.3 2.6-1.5.9-.2 2 .6 3 .5.9 0 1.8-1 2.8-1z"/><path fill="none" stroke="#FFF" stroke-width=".922" stroke-miterlimit="10" d="M48 14.7c1 0 1.9.9 2.8 1 1 .1 2-.7 3-.5.9.2 1.7 1.2 2.6 1.5.9.2 2.1-.3 3 0 .9.3 1.4 1.5 2.3 1.9.9.4 2.1.1 3 .5.8.5 1.2 1.7 1.9 2.3.8.5 2.1.4 2.8 1 .7.6.8 1.9 1.5 2.6.7.7 2 .8 2.6 1.5.6.7.5 2 1 2.8.5.8 1.8 1.1 2.3 1.9.5.8.1 2.1.5 3 .4.9 1.6 1.4 1.9 2.3.3.9-.2 2.1 0 3 .2.9 1.3 1.7 1.5 2.6.2.9-.6 2-.5 3 .1.9 1 1.9 1 2.8 0 1-.9 1.9-1 2.8-.1 1 .7 2 .5 3-.2.9-1.2 1.7-1.5 2.6-.2.9.3 2.1 0 3-.3.9-1.5 1.4-1.9 2.3-.4.9-.1 2.1-.5 3-.5.8-1.7 1.2-2.3 1.9-.5.8-.4 2.1-1 2.8-.6.7-1.9.8-2.6 1.5-.7.7-.8 2-1.5 2.6-.7.6-2 .5-2.8 1-.8.5-1.1 1.8-1.9 2.3-.8.5-2.1.1-3 .5-.9.4-1.4 1.6-2.3 1.9-.9.3-2.1-.2-3 0-.9.2-1.7 1.3-2.6 1.5-.9.2-2-.6-3-.5-.9.1-1.9 1-2.8 1-1 0-1.9-.9-2.8-1-1-.1-2 .7-3 .5-.9-.2-1.7-1.2-2.6-1.5-.9-.2-2.1.3-3 0-.9-.3-1.4-1.5-2.3-1.9-.9-.4-2.1-.1-3-.5-.8-.5-1.2-1.7-1.9-2.3-.8-.5-2.1-.4-2.8-1-.7-.6-.8-1.9-1.5-2.6-.7-.7-2-.8-2.6-1.5-.6-.7-.5-2-1-2.8-.5-.8-1.8-1.1-2.3-1.9-.5-.8-.1-2.1-.5-3-.4-.9-1.6-1.4-1.9-2.3-.3-.9.2-2.1 0-3-.2-.9-1.3-1.7-1.5-2.6-.2-.9.6-2 .5-3-.1-.9-1-1.9-1-2.8 0-1 .9-1.9 1-2.8.1-1-.7-2-.5-3 .2-.9 1.2-1.7 1.5-2.6.2-.9-.3-2.1 0-3 .3-.9 1.5-1.4 1.9-2.3.4-.9.1-2.1.5-3 .5-.8 1.7-1.2 2.3-1.9.5-.8.4-2.1 1-2.8.6-.7 1.9-.8 2.6-1.5.7-.7.8-2 1.5-2.6.7-.6 2-.5 2.8-1 .8-.5 1.1-1.8 1.9-2.3.8-.5 2.1-.1 3-.5.9-.4 1.4-1.6 2.3-1.9.9-.3 2.1.2 3 0 .9-.2 1.7-1.3 2.6-1.5.9-.2 2 .6 3 .5.9 0 1.8-1 2.8-1z"/><path fill-rule="evenodd" clip-rule="evenodd" fill="#404040" d="M48 17.1c17.1 0 30.9 13.8 30.9 30.9S65.1 78.9 48 78.9 17.1 65.1 17.1 48 30.9 17.1 48 17.1z"/><path fill-rule="evenodd" clip-rule="evenodd" fill="#FFF" d="M48 18.4c16.3 0 29.6 13.3 29.6 29.6S64.3 77.6 48 77.6 18.4 64.3 18.4 48 31.7 18.4 48 18.4z"/><path d="M33.8 17.5l-1.1.6-4.1-2.3 2 3.5-1.1.7-3-5.4 1.1-.6 4.1 2.3-2-3.5 1.1-.6 3 5.3zm4.3-2.8l-2.1.7v1.3l-1.3.4.2-6.6 1.1-.4 4.1 5.1-1.3.4-.7-.9zm-2.2-.4l1.5-.5-1.5-1.9v2.4zm8.4-4.8l-1.9.3.8 5.1-1.2.1-.8-5-1.8.3-.2-1 5-.8.1 1zm6.6-1.1l-.1 4.1c0 .7-.2 1.2-.7 1.6s-1 .6-1.7.6-1.3-.2-1.7-.6c-.4-.4-.6-.9-.6-1.6l.1-4.1h1.3l-.1 4.1c0 .4.1.7.3.9.2.2.5.3.8.3.7 0 1.1-.4 1.1-1.1l.1-4.1 1.2-.1zm3.8 4.5l-1-.2-.4 2.2-1.2-.2 1.1-6 2.3.3c.7.1 1.2.4 1.6.8.3.4.4.9.3 1.5-.1.4-.2.7-.5 1-.2.2-.5.4-.9.5l.8 2.7v.1l-1.3-.3-.8-2.4zm-.8-1.2l1 .2c.3.1.6 0 .8-.1.2-.1.3-.3.4-.6.1-.3 0-.5-.1-.7-.1-.2-.4-.3-.7-.4l-1-.2-.4 1.8zm7.6 4.2l-2.1-.8-.8 1-1.3-.5 4.3-4.9 1.1.4v6.6l-1.3-.5.1-1.3zm-1.4-1.6l1.4.5.1-2.4-1.5 1.9zM65 18l2.3 1.4-.5.9-3.4-2 3.1-5.3 1.1.6L65 18zM20.2 76.7l-.9-.9 4.4-4.4.9.9-4.4 4.4zm5.5 4.6l-1-.8.5-4.7-2.5 3.2-1-.8 3.7-4.9 1 .8-.4 4.8 2.5-3.2 1 .8-3.8 4.8zm6.6 2.7c-.3.1-.7.2-1.2.1-.4-.1-.9-.2-1.3-.4-.5-.2-.8-.6-1.1-1-.3-.4-.4-.8-.4-1.3s.1-1 .4-1.5l.2-.4c.3-.5.6-1 1-1.3s.8-.5 1.3-.5.9.1 1.4.3c.6.3 1.1.7 1.3 1.2.2.5.2 1.1 0 1.7l-1.1-.6c.1-.3.1-.6 0-.9-.1-.2-.3-.4-.6-.6-.4-.2-.7-.2-1.1 0s-.7.6-1 1.1l-.1.6c-.3.6-.4 1.1-.3 1.5.1.4.3.7.7.9.4.2.8.3 1 .2l.5-.9-1-.5.4-.8 2.2 1.1-1.2 2zm4.5.1l-1-.3-.7 2.2-1.1-.5 1.8-5.9 2.2.7c.7.2 1.2.5 1.5 1s.3.9.2 1.5c-.1.4-.3.7-.6.9-.3.2-.6.3-1 .4l.5 2.8v.1l-1.3-.4-.5-2.5zm-.6-1.3l1 .3c.3.1.6.1.8 0 .2-.1.4-.3.5-.6.1-.3.1-.5 0-.7-.1-.2-.3-.4-.7-.5l-1-.3-.6 1.8zm8.2 2.4l-2.4-.3-.2 1.6 2.8.4-.1 1-4.1-.6.9-6.1 4.1.6-.1 1-2.8-.4-.2 1.5 2.4.4-.3.9zm1.9 2.8l-.1-6.2h1.9c.5 0 1 .1 1.5.3.4.2.8.6 1 1 .2.4.4 1 .4 1.5v.3c0 .6-.1 1.1-.3 1.5-.2.4-.6.8-1 1.1-.4.3-.9.4-1.4.4l-2 .1zm1.2-5.1l.1 4.1h.6c.5 0 .9-.2 1.1-.5.3-.3.4-.8.4-1.4v-.3c0-.6-.1-1.1-.4-1.4-.3-.3-.6-.5-1.1-.5h-.7zm6.7 4.6l-1.3.2-.8-6.1 1.3-.2.8 6.1zm5-3.8l-2.4.6.4 1.6 2.8-.7.3 1-4 1-1.5-6 4-1 .3 1-2.8.7.4 1.4 2.4-.6.1 1zm7.4-.2l-1.2.5-3.9-2.7 1.7 3.7-1.2.6-2.5-5.6 1.2-.5 3.9 2.7-1.7-3.7 1.2-.5 2.5 5.5zm2.8-7.9l-1.6 1 2.8 4.3-1.1.7-2.8-4.3-1.5 1-.6-.9 4.2-2.8.6 1zm5.5-.2c-.2-.2-.3-.3-.6-.2-.2 0-.5.1-.9.3s-.8.3-1.1.4c-.8.2-1.4.1-1.8-.4-.2-.2-.4-.5-.4-.8s0-.7.2-1c.2-.3.4-.7.7-1 .3-.3.7-.5 1-.6s.7-.1 1 0 .6.3.9.5l-.9.8c-.2-.2-.4-.3-.6-.3s-.5.1-.7.3c-.2.2-.4.4-.4.6s0 .4.2.6c.1.1.3.2.6.2.2 0 .5-.1.9-.3.7-.3 1.2-.5 1.7-.5s.9.2 1.2.5c.4.4.5.8.4 1.3s-.4 1-.9 1.4c-.3.3-.7.6-1.1.7-.4.1-.8.2-1.1.1-.4-.1-.7-.3-.9-.6l.9-.9c.5.5 1 .5 1.6-.1.2-.2.4-.4.4-.6-.1 0-.2-.2-.3-.4z" fill="#404040"/><path fill-rule="evenodd" clip-rule="evenodd" fill="#FFF" stroke="#404040" stroke-width="1.5" stroke-linecap="round" stroke-linejoin="round" stroke-miterlimit="10" d="M46.6 47.8s-6.4-19.8-23.5-4c4.8-1.2 10.2 20.3 23.5 4z"/><path fill-rule="evenodd" clip-rule="evenodd" fill="#FFF" stroke="#404040" stroke-width="1.5" stroke-linecap="round" stroke-linejoin="round" stroke-miterlimit="10" d="M43.6 50.6S31.5 33.4 53 29.1c-3.6 3.2 10.4 20.6-9.4 21.5z"/><path fill-rule="evenodd" clip-rule="evenodd" fill="#FFF" stroke="#404040" stroke-width="1.5" stroke-linecap="round" stroke-linejoin="round" stroke-miterlimit="10" d="M42.8 51.7s12.2-23.6 30.5-.2c-5.9-2.6-17.2 23.4-30.5.2z"/><path fill="#404040" d="M61.4 47.7c-1.5-.7-3.1-1.3-4.7-1.5-.4-.1-.8-.1-1.2-.1h-1.2l-1.3.1c-.4 0-.8.2-1.2.3-1.6.4-3.2 1.1-4.6 2-1.4.9-2.8 2-3.9 3.2-.1.1-.3.1-.4 0-.1-.1-.1-.3 0-.4 1.2-1.3 2.5-2.4 4-3.4s3.1-1.7 4.8-2.2c.4-.1.8-.2 1.3-.3l1.3-.2h1.3c.4 0 .9 0 1.3.1 1.8.1 3.5.8 5.1 1.5.3.1.4.4.3.7s-.6.3-.9.2zm-18.9 1.8c-.6-1.2-1.3-2.4-2.2-3.5-.9-1.1-1.9-2-3.1-2.7-1.2-.7-2.5-1.1-3.9-1.2-1.4-.1-2.7.3-4.1.7-.2.1-.3 0-.4-.2 0-.2 0-.3.2-.4 1.4-.5 2.8-1 4.3-.9 1.5 0 3 .4 4.3 1.2 1.3.7 2.4 1.7 3.4 2.8 1 1.1 1.8 2.3 2.4 3.7.1.2 0 .5-.2.7-.3.2-.6.1-.7-.2 0 .1 0 .1 0 0z"/><path fill="#404040" d="M43.2 50.4c-.5-1.5-.7-3-.8-4.5-.1-1.5.1-3 .4-4.5.2-.7.4-1.5.7-2.2.3-.7.6-1.4 1.1-2 .8-1.3 1.9-2.4 3-3.4.1-.1.3-.1.4 0 .1.1.1.3 0 .4-1.1 1-2.1 2-2.8 3.3-.4.6-.7 1.3-1 1.9-.2.7-.5 1.4-.6 2.1-.3 1.4-.4 2.9-.3 4.3.1 1.4.4 2.9.8 4.2.1.3 0 .5-.3.6-.2.2-.5 0-.6-.2z"/><path clip-rule="evenodd" fill="none" stroke="#404040" stroke-width="1.5" stroke-linecap="round" stroke-linejoin="round" stroke-miterlimit="10" d="M45.7 64.5c-3.8-1.9-4.9-9.6-2.6-13.3"/><path fill="#404040" d="M48 3c24.8 0 45 20.2 45 45S72.8 93 48 93 3 72.8 3 48 23.2 3 48 3m0-2C22 1 1 22 1 48s21 47 47 47 47-21 47-47S74 1 48 1z"/></svg><svg width="116" height="116" viewBox="-10 -10 116 116" y="232"><path fill-rule="evenodd" clip-rule="evenodd" fill="#FFF" stroke="#404040" stroke-width="2" stroke-miterlimit="10" d="M48 1c26 0 47 21 47 47S74 95 48 95 1 74 1 48 22 1 48 1z"/><path d="M34.9 15.4c-.1-.2-.2-.4-.5-.4-.2 0-.5-.1-1 0s-.8.1-1.1 0c-.8-.1-1.3-.4-1.6-1-.1-.3-.2-.6-.1-.9s.2-.6.5-.9c.3-.3.6-.5 1-.7.4-.2.8-.3 1.2-.3.4 0 .7.1 1 .3s.5.5.7.8l-1.2.5c-.1-.3-.3-.4-.5-.5-.2-.1-.5 0-.8.1-.3.1-.5.3-.6.5-.1.2-.1.4 0 .6.1.2.2.3.5.3h1c.7-.1 1.3-.1 1.8.1.4.2.7.5.9.9.2.5.2 1 0 1.4-.2.4-.7.8-1.3 1.1-.4.2-.9.3-1.3.3s-.8-.1-1.1-.3c-.3-.2-.5-.5-.7-.8l1.2-.5c.3.6.8.8 1.5.4.3-.1.5-.3.6-.5 0-.1 0-.3-.1-.5zm6-1.5l-2.2.5-.1 1.3-1.3.3.8-6.5 1.1-.3 3.7 5.4-1.3.3-.7-1zm-2.1-.5l1.5-.4-1.3-2-.2 2.4zm8.5-1.5l-2.4.2.2 2.5-1.3.1-.4-6.1 4-.3.1 1-2.7.2.1 1.6 2.4-.2v1zm5.4.2l-2.4-.2-.1 1.6 2.8.2-.1 1-4.1-.3.5-6.1 4.1.3-.1 1-2.8-.2-.1 1.5 2.4.2-.1 1zm7.1-1l-1.8-.5-1.2 5-1.2-.3 1.2-5-1.8-.4.2-1 4.9 1.2-.3 1zm3 3.1l2.3-2 1.3.6-3.4 2.7-.9 2-1.2-.5.9-2-.3-4.4 1.3.6v3zM28.9 80.7l-1 1.9-1.1-.6 3-5.4 2.1 1.2c.4.2.7.5.9.8.2.3.3.7.4 1s-.1.7-.3 1.1c-.3.5-.7.8-1.2 1-.5.1-1.1 0-1.8-.4l-1-.6zm.5-.9l1 .5c.3.2.6.2.8.2s.4-.2.6-.5c.1-.3.2-.5.1-.8-.1-.2-.2-.5-.5-.6l-1-.6-1 1.8zm6.2 3.9l-1-.3-.7 2.1-1.2-.5 2-5.8 2.2.8c.7.2 1.2.6 1.4 1 .3.4.3.9.1 1.5-.1.4-.3.7-.6.9s-.6.3-1 .4l.4 2.8v.1l-1.2-.5-.4-2.5zm-.6-1.3l1 .3c.3.1.6.1.8 0 .2-.1.4-.3.5-.5.1-.3.1-.5 0-.7-.1-.2-.3-.4-.6-.5l-1-.3-.7 1.7zm9.6 2.6c-.1.6-.3 1.1-.6 1.5s-.6.7-1.1.9-.9.2-1.4.1c-.5-.1-.9-.3-1.3-.6s-.6-.7-.7-1.2c-.1-.5-.2-1-.1-1.6v-.3c.1-.6.3-1.1.6-1.5s.7-.7 1.1-.9c.4-.2.9-.2 1.4-.1.5.1.9.3 1.3.6s.6.7.7 1.2.2 1 .1 1.6v.3zm-1.3-.5c.1-.6.1-1.1-.1-1.5-.2-.4-.5-.6-.9-.7-.4-.1-.8 0-1.1.3s-.5.8-.6 1.4v.3c-.1.6-.1 1.1.1 1.5.2.4.5.6.9.7.4.1.8 0 1-.3.3-.3.5-.8.6-1.4l.1-.3zm2.9 3.5l-.1-6.2H48c.5 0 1 .1 1.5.3.4.2.8.6 1 1 .2.4.4 1 .4 1.5v.3c0 .6-.1 1.1-.3 1.5-.2.4-.6.8-1 1.1-.4.3-.9.4-1.4.4l-2 .1zm1.1-5.1l.1 4.1h.6c.5 0 .9-.2 1.1-.5.3-.3.4-.8.4-1.4v-.3c0-.6-.1-1.1-.4-1.4-.3-.3-.6-.5-1.1-.5h-.7zm9.1-2l.7 4c.1.7 0 1.2-.3 1.7s-.9.8-1.6.9c-.7.1-1.3 0-1.8-.3s-.8-.8-.9-1.4l-.7-4 1.2-.2.7 4c.1.4.2.7.4.8.2.1.5.2.8.1.7-.1 1-.6.9-1.3l-.7-4 1.3-.3zm7 1.9c.2.6.1 1.2-.2 1.7-.3.5-.8.9-1.4 1.1-.7.3-1.4.2-2-.1-.6-.3-1.1-1-1.4-1.8l-.1-.4c-.2-.6-.3-1.1-.2-1.6 0-.5.2-.9.5-1.3s.7-.6 1.1-.8c.7-.2 1.3-.3 1.8-.1.5.2 1 .6 1.3 1.2l-1.2.4c-.2-.4-.4-.6-.6-.7-.2-.1-.5-.1-.9 0s-.6.4-.7.8c-.1.4 0 .8.2 1.4l.2.4c.2.6.5 1 .8 1.3s.6.3 1.1.1c.4-.1.6-.3.7-.6.1-.2.1-.5 0-.9l1-.1zm3.9-5.6l-1.6.9 2.5 4.5-1.1.6-2.5-4.5-1.6.9-.5-.9 4.4-2.5.4 1z" fill="#404040"/><path fill-rule="evenodd" clip-rule="evenodd" fill="#404040" d="M48 16.2c17.5 0 31.8 14.2 31.8 31.8S65.5 79.8 48 79.8 16.2 65.5 16.2 48 30.5 16.2 48 16.2z"/><path fill-rule="evenodd" clip-rule="evenodd" fill="#FFF" stroke="#404040" stroke-miterlimit="10" d="M48 20.4c15.2 0 27.6 12.4 27.6 27.6S63.2 75.6 48 75.6 20.4 63.2 20.4 48 32.8 20.4 48 20.4z"/><g clip-rule="evenodd" fill="none" stroke="#404040" stroke-linecap="round" stroke-linejoin="round" stroke-miterlimit="10"><path d="M69.7 65s-5.3-3.5-10.7-2.4-11.4 3.3-14.1 2.1-7.5-4.4-8.9-5.1-7.7-7.9-8.4-8.7.9-1.9 3-1.3c1.7-.1 3 0 3.6.7.9 1.1 1.8.1 2.6.4.4.2 1 .5 1.6 1 0 0 .6-.5 1.3-.1.7.4 1.5 1 1.5 1"/><path d="M53.4 58.5s-5.4-.6-7.9-1.9c-2.1-1-2.5-1-4.8-1.9-.8-.7.6-3.2 3.7-2.8 3.1.4 3.9.9 5.8 1.2 1.6.3 4.3-1.1 4.3-1.1h.1c1.7-.6 4.3-.9 7.7.6 2.7 1.2 5.1 5 10.7 6.1"/><path d="M30.6 49.6c.1-.2 2 1 2.9 2.4 1.6.7 3.6 2.2 4.8 4.4 3.1.8 5.6 2 5.6 2s2.8-.5 5.2-.6"/><path d="M35 50.9s3 1.6 3.4 3c0 0 1 .2 2.3.7"/></g><g clip-rule="evenodd" fill="none" stroke="#404040" stroke-linecap="round" stroke-linejoin="round" stroke-miterlimit="10"><path d="M26.7 30.4s5.3 3.5 10.7 2.4c5.4-1.1 11.4-3.3 14.1-2.1 2.7 1.2 7.5 4.4 8.9 5.1 1.4.7 7.7 7.9 8.4 8.7s-.9 1.9-3 1.3c-1.7.1-3 0-3.6-.7-.9-1.1-1.8-.1-2.6-.4-.4-.2-1-.5-1.6-1 0 0-.6.5-1.3.1-.7-.4-1.5-1-1.5-1"/><path d="M42.9 36.9s5.4.6 7.9 1.9c2.1 1 2.5 1 4.8 1.9.8.7-.6 3.2-3.7 2.8-3.1-.4-3.9-.9-5.8-1.2-1.6-.3-4.3 1.1-4.3 1.1h-.1c-1.7.6-4.3.9-7.7-.6-2.7-1.2-5.1-5-10.7-6.1"/><path d="M65.8 45.9c-.1.2-2-1-2.9-2.4-1.6-.7-3.6-2.2-4.8-4.4-3.1-.8-5.6-2-5.6-2s-2.8.5-5.2.6"/><path d="M61.4 44.5s-3-1.6-3.4-3c0 0-1-.2-2.3-.7"/></g><path d="M85.4 49.7l-3.1 1.6.6-3.5-2.5-2.4 3.5-.5 1.5-3.1 1.6 3.1 3.4.5-2.5 2.4.6 3.5zm-2.1 10.8l-2.2 1.2.4-2.5-1.8-1.8 2.5-.4 1.1-2.3 1.2 2.3 2.5.4-1.8 1.8.4 2.5zm0-22.9l-2.2 1.2.4-2.6-1.8-1.7 2.5-.4 1.1-2.3 1.2 2.3 2.5.4-1.8 1.7.4 2.6zm-4.9 30.7l-1.7.9.3-1.9-1.3-1.3 1.8-.3.9-1.7.8 1.7 1.9.3-1.4 1.3.4 1.9zm0-39.3l-1.7.9.3-1.9-1.3-1.3 1.8-.3.9-1.7.8 1.7 1.9.3-1.4 1.3.4 1.9zM11 49.7l3.1 1.6-.6-3.5 2.5-2.4-3.4-.5-1.6-3.1-1.5 3.1-3.5.5 2.5 2.4-.6 3.5zm2.1 10.8l2.3 1.2-.5-2.5 1.9-1.8-2.6-.4-1.1-2.3L12 57l-2.6.4 1.9 1.8-.5 2.5zm0-22.9l2.3 1.2-.5-2.6 1.9-1.7-2.6-.4-1.1-2.3-1.1 2.3-2.6.4 1.9 1.7-.5 2.6zM18 68.3l1.7.9-.3-1.9 1.4-1.3-1.9-.3L18 64l-.8 1.7-1.9.3 1.4 1.3-.3 1.9zM18 29l1.7.9-.3-1.9 1.4-1.3-1.9-.3-.9-1.7-.8 1.7-1.9.3 1.4 1.3-.3 1.9z" fill-rule="evenodd" clip-rule="evenodd" fill="#404040"/></svg><svg width="118" height="118" viewBox="-10 -10 118 118" y="348"><path clip-rule="evenodd" fill="none" stroke="#424242" stroke-width="2" stroke-linecap="round" stroke-linejoin="round" stroke-miterlimit="10" d="M49 1c26.5 0 48 21.5 48 48S75.5 97 49 97 1 75.5 1 49 22.5 1 49 1z"/><path fill="none" stroke="#424242" stroke-width="2" stroke-linecap="round" stroke-linejoin="round" stroke-miterlimit="10" d="M26.3 18.1h45.3v64.3H26.3z"/><path fill="none" stroke="#424242" stroke-width="2" stroke-linecap="round" stroke-linejoin="round" stroke-miterlimit="10" d="M31.1 64.9h35.7v10.2H31.1zm25.8-23H31.1V31.7h25.8M36.8 70h24.4"/><path fill="none" stroke="#424242" stroke-width="2" stroke-linecap="round" stroke-linejoin="round" stroke-miterlimit="10" d="M55.7 35.1l4 4.2 7-11.5m-9.8 29.5H31.1V47.1h25.8"/><path fill="none" stroke="#424242" stroke-width="2" stroke-linecap="round" stroke-linejoin="round" stroke-miterlimit="10" d="M55.7 50.5l4 4.3 7-11.6M26.3 23.9h45.4"/></svg><svg width="118" height="118" viewBox="-10 -10 118 118" y="466"><path fill="none" stroke="#424242" stroke-width="2" stroke-linecap="round" stroke-linejoin="round" stroke-miterlimit="10" d="M65.4 32.4l3.7.8c1.5.3 2.5 1.9 2.2 3.4l-2 8.9c-.3 1.5-1.9 2.5-3.4 2.2l-3.7-.8M32.8 32.4l-3.7.8c-1.5.3-2.5 1.9-2.2 3.4l2 8.9c.3 1.5 1.9 2.5 3.4 2.2l3.7-.8"/><path clip-rule="evenodd" fill="none" stroke="#424242" stroke-width="2" stroke-linecap="round" stroke-linejoin="round" stroke-miterlimit="10" d="M49 1c26.5 0 48 21.5 48 48S75.5 97 49 97 1 75.5 1 49 22.5 1 49 1z"/><path fill="none" stroke="#424242" stroke-width="2" stroke-linecap="round" stroke-linejoin="round" stroke-miterlimit="10" d="M65.1 33.8c0 8.9-6 21.2-16.1 21.2S32.9 42.7 32.9 33.8 40.1 17.7 49 17.7s16.1 7.2 16.1 16.1z"/><path fill="none" stroke="#424242" stroke-width="2" stroke-linecap="round" stroke-linejoin="round" stroke-miterlimit="10" d="M28.8 33.1c0-11.2 9-20.2 20.2-20.2s20.2 9 20.2 20.2"/><path fill="none" stroke="#424242" stroke-width="2" stroke-linecap="round" stroke-linejoin="round" stroke-miterlimit="10" d="M36.2 36.4s13.5 1.9 18.3-9.3c2.8 4.5 4.5 8 10.3 7M32.4 47.7c.7 2.7 4 12.9 11.9 12.9"/><path fill="none" stroke="#424242" stroke-width="2" stroke-linecap="round" stroke-linejoin="round" stroke-miterlimit="10" d="M51.6 63.2h-4.7c-1.5 0-2.7-1.2-2.7-2.7 0-1.5 1.2-2.7 2.7-2.7h4.7c1.5 0 2.7 1.2 2.7 2.7-.1 1.5-1.3 2.7-2.7 2.7zm5.5-11l.6 9.8c6.7 1.2 13.9 4.7 21.5 24M41.4 52.2l-.7 9.8c-6.7 1.2-13.9 4.7-21.5 24"/></svg><svg width="118" height="118" viewBox="-10 -10 118 118" y="584"><path clip-rule="evenodd" fill="none" stroke="#424242" stroke-width="2" stroke-linecap="round" stroke-linejoin="round" stroke-miterlimit="10" d="M49 1c26.5 0 48 21.5 48 48S75.5 97 49 97 1 75.5 1 49 22.5 1 49 1z"/><path clip-rule="evenodd" fill="none" stroke="#424242" stroke-width="2" stroke-linecap="round" stroke-linejoin="round" stroke-miterlimit="10" d="M79.9 78.9l-34.4-6.7s-15.8-4.2-18.8-6c-3-1.8-14-6.1-14.6-6.8-.7-.7-.6-5.6 5.4-4.9 3.6.5 8.7 2.4 10.7 3.5 6.6.7 8.1.2 11.8 2.5"/><path clip-rule="evenodd" fill="none" stroke="#424242" stroke-width="2" stroke-linecap="round" stroke-linejoin="round" stroke-miterlimit="10" d="M79.5 65.2c1-2.4 5-5.1 4 1.8s-4.9 17.1-8.3 17.1c-2.3 0-1.6-4.7-.8-6.2m8.3-15.3l11.6 2.2m-19 19.3l3.4 2.1M30.2 29.8h15.6V36H30.2zm20.5 0h16.5V36H50.7zm15 26.2V36h-15m-4.9 0H31.7v22.5m14.1-29.3h4.9v27.2h-4.9z"/><path clip-rule="evenodd" fill="none" stroke="#424242" stroke-width="2" stroke-linecap="round" stroke-linejoin="round" stroke-miterlimit="10" d="M31.7 42.8h14.1v4.5H31.7zm19 0h15v4.5h-15zm-3-13.6c-5.8 0-11.1-5.3-8.6-8.2s8.6 2.9 8.6 8.2zm.5 0c5.8 0 11.1-5.3 8.6-8.2s-8.6 2.9-8.6 8.2zm35.3 37.7L77.1 64c-1-5.4-6.4-7.6-9.9-7.6H43.4c-3.2 0-6.3 5.1 0 6.5 6.3 1.4 16.2-.5 20.3 4.1"/></svg><svg width="118" height="118" viewBox="-10 -10 118 118" y="702"><path clip-rule="evenodd" fill="none" stroke="#424242" stroke-width="2" stroke-linecap="round" stroke-linejoin="round" stroke-miterlimit="10" d="M49 1c26.5 0 48 21.5 48 48S75.5 97 49 97 1 75.5 1 49 22.5 1 49 1z"/><path fill="none" stroke="#424242" stroke-width="2" stroke-linecap="round" stroke-linejoin="round" stroke-miterlimit="10" d="M22.3 60H10.8m5.7-5.2v11.5m64 3.3H69m5.7-5.3v11.5M57 68.1l.6 9.8c6.8 1.1 11.4 3 16 12.3M40.9 68.1l-.6 9.8c-6.7 1.1-11.3 3-15.9 12.3m41.7-69.6c-2.3-3.1-5.2-4.9-5.2-4.9-4.7-3.4-17.2-4.1-23.9 0 0 0-2.9 1.8-5.2 4.9-8 10.8-3.3 33.8 4.6 42.6 1.6 1.7 5 5.6 10.6 6.8.8.2 3.3.2 4 0 5.6-1.2 9-5.1 10.6-6.8 7.8-8.9 12.4-31.9 4.5-42.6z"/><path fill="none" stroke="#424242" stroke-width="2" stroke-linecap="round" stroke-linejoin="round" stroke-miterlimit="10" d="M64.3 18.5C62.5 21 60 23.6 56.7 26c-9.6 7-20.3 7.2-25 7.2-4.4 0-8.2-.6-11.2-1.3m36.2-5.8c1.1 1.1 2.7 2.4 5.1 3.5 3.3 1.6 6.3 1.9 8 1.9m-33.6 10c.1-.2 1-1.9 3-2.3 1.7-.3 3.5.6 4.4 2.3m9.6 0c.1-.2 1-1.9 3-2.3 1.7-.3 3.5.6 4.4 2.3M45.2 56.4c.1.2 1 1.9 3 2.3 1.7.3 3.5-.6 4.4-2.3M84.8 29h-8.5m4.3-3.9v8.5m-53.1 6.5c-1.2-.3-3.3-.7-4.4.4-1.8 1.7-.4 6.4 2.4 8.7 1.2 1 2.5 1.4 3.4 1.6m41.5-10.7c1.2-.3 3.3-.7 4.4.4 1.8 1.7.4 6.4-2.4 8.7-1.2 1-2.5 1.4-3.4 1.6"/></svg></svg>